<svg version="1.2" xmlns="http://www.w3.org/2000/svg" viewBox="0 0 105 105" width="105" height="105"><style>.a{fill:#e8542c;stroke:#e8542c;stroke-width:1.8}</style><path class="a" d="m77.1 25.6l1.5 1.4-25.1 25.1 25.1 25-1.5 1.5-25-25.1-25.1 25.1-1.4-1.5 25-25-25-25.1 1.4-1.4 25.1 25 25-25z"/><path fill-rule="evenodd" class="a" d="m71.7 4.8c6.2 2.6 11.8 6.3 16.6 11.1 4.7 4.7 8.5 10.4 11.1 16.6 2.5 6.2 3.9 12.9 3.9 19.6 0 20.7-12.5 39.4-31.6 47.3-19.2 7.9-41.2 3.5-55.8-11.1-14.7-14.7-19-36.7-11.1-55.8 7.9-19.1 26.6-31.6 47.3-31.6 6.7 0 13.4 1.3 19.6 3.9zm-0.8 92.7c5.9-2.5 11.3-6.1 15.9-10.7 4.6-4.6 8.2-10 10.7-15.9 2.4-6 3.7-12.4 3.7-18.8 0-19.9-12-37.8-30.3-45.4-18.4-7.6-39.5-3.4-53.6 10.6-14 14.1-18.2 35.2-10.6 53.6 7.6 18.3 25.5 30.3 45.4 30.3 6.4 0 12.8-1.3 18.8-3.7z"/></svg>